<svg width="25" height="24" viewBox="0 0 25 24" fill="none" xmlns="http://www.w3.org/2000/svg">
<g clip-path="url(#clip0_2_150)">
<path d="M24.266 9.648H23.3V9.6H12.5V14.4H19.28C18.29 17.196 15.632 19.2 12.5 19.2C8.522 19.2 5.3 15.978 5.3 12C5.3 8.022 8.522 4.8 12.5 4.8C14.336 4.8 16.004 5.49 17.276 6.624L20.672 3.228C18.53 1.23 15.662 0 12.5 0C5.87 0 0.5 5.37 0.5 12C0.5 18.63 5.87 24 12.5 24C19.13 24 24.5 18.624 24.5 12C24.5 11.196 24.416 10.41 24.266 9.648Z" fill="#FFC107"/>
<path d="M1.88672 6.414L5.82872 9.306C6.89672 6.666 9.47672 4.8 12.5007 4.8C14.3367 4.8 16.0047 5.49 17.2767 6.624L20.6727 3.228C18.5307 1.23 15.6627 0 12.5007 0C7.89272 0 3.89672 2.604 1.88672 6.414Z" fill="#FF3D00"/>
<path d="M12.5003 23.9999C15.6023 23.9999 18.4163 22.8119 20.5463 20.8859L16.8323 17.7419C15.6263 18.6539 14.1323 19.1999 12.5003 19.1999C9.38031 19.1999 6.72831 17.2079 5.73231 14.4299L1.82031 17.4479C3.80631 21.3359 7.83831 23.9999 12.5003 23.9999Z" fill="#4CAF50"/>
<path d="M24.266 9.6481H23.3V9.6001H12.5V14.4001H19.28C18.806 15.7441 17.942 16.9021 16.826 17.7421L20.54 20.8861C20.276 21.1261 24.494 18.0001 24.494 12.0001C24.494 11.1961 24.41 10.4101 24.26 9.6481H24.266Z" fill="#1976D2"/>
</g>
<defs>
<clipPath id="clip0_2_150">
<rect width="24" height="24" fill="white" transform="translate(0.5)"/>
</clipPath>
</defs>
</svg>
